<svg width="300" height="300" viewBox="0 0 300 300" fill="none" xmlns="http://www.w3.org/2000/svg">
<path d="M104.264 250C197.079 250 247.866 173.031 247.866 106.398C247.866 104.232 247.866 102.067 247.768 99.9016C257.61 92.815 266.173 83.8583 272.965 73.7205C263.909 77.7559 254.165 80.4134 243.929 81.6929C254.362 75.4921 262.335 65.5512 266.173 53.7402C256.429 59.5472 245.602 63.6811 234.087 65.9449C224.835 56.1024 211.744 50 197.276 50C169.421 50 146.783 72.6378 146.783 100.492C146.783 104.429 147.276 108.268 148.063 112.008C106.134 109.941 68.9291 89.7638 44.0276 59.252C39.6969 66.7323 37.2362 75.3937 37.2362 84.6457C37.2362 102.165 46.1929 117.618 59.6772 126.673C51.4095 126.378 43.6339 124.114 36.8425 120.374C36.8425 120.571 36.8425 120.768 36.8425 121.063C36.8425 145.472 54.2638 165.945 77.2953 170.571C73.063 171.752 68.6339 172.343 64.0079 172.343C60.7598 172.343 57.6102 172.047 54.5591 171.457C60.9567 191.535 79.6575 206.102 101.705 206.496C84.3819 220.079 62.6299 228.15 39.0079 228.15C34.9724 228.15 30.937 227.953 27 227.461C49.2441 241.634 75.8189 250 104.264 250Z" fill="white"/>
</svg>
